<svg xmlns="http://www.w3.org/2000/svg" xmlns:xlink="http://www.w3.org/1999/xlink" width="28.938" height="28.938" viewBox="0 0 28.938 28.938"><defs><style>.a,.b{fill:none;}.b{stroke:#3bcff0;stroke-miterlimit:10;stroke-width:2px;}.c{clip-path:url(#a);}.d{fill:#3bcff0;}</style><clipPath id="a"><path class="a" d="M0,0H14.469V10.844H0Z"/></clipPath></defs><g transform="translate(1 1)"><circle class="b" cx="13.469" cy="13.469" r="13.469" transform="translate(0 0)"/><g transform="translate(6.216 8.288)"><path class="a" d="M0,0H14.469V10.844H0Z" transform="translate(0)"/><g class="c" transform="translate(0)"><path class="d" d="M5.882,10.844H1.9A1.842,1.842,0,0,1,.007,9.287.513.513,0,0,1,0,9.18V9.157q0-.947,0-1.893V7.185c0-1.77,0-3.6,0-5.4A1.723,1.723,0,0,1,.64.432,1.762,1.762,0,0,1,1.821,0H7.234l1.551,0,1.552,0c.875,0,1.59,0,2.25-.009h.019a1.829,1.829,0,0,1,1.816,1.422,1.489,1.489,0,0,1,.043.335q0,.822,0,1.644c0,1.867.006,3.795-.006,5.691a1.719,1.719,0,0,1-1.367,1.688,3.48,3.48,0,0,1-.658.062C10.537,10.843,8.455,10.844,5.882,10.844ZM8.9,5.883h0l.023.035a.333.333,0,0,0,.044.06c1.148,1.149,2.025,2.027,2.846,2.847a1.217,1.217,0,0,0,.134.121.452.452,0,0,0,.268.09.441.441,0,0,0,.428-.334.47.47,0,0,0-.16-.479c-.628-.628-1.107-1.107-1.554-1.555L9.85,5.588l-.307-.308.021-.014a.282.282,0,0,0,.04-.029l.56-.508.019-.017L11.9,3.151,12.069,3c.157-.141.317-.284.464-.435a.437.437,0,0,0-.011-.63.448.448,0,0,0-.309-.124.488.488,0,0,0-.328.131L7.865,5.595l-.192.175L7.423,6l-.189.17L7.213,6.15l-.025-.021L3.866,3.114l-1.28-1.16a.521.521,0,0,0-.346-.142.415.415,0,0,0-.31.137.446.446,0,0,0-.125.336.5.5,0,0,0,.173.33L3.278,3.8l0,0,.9.814.743.678-.009.01c-.018.02-.033.037-.049.053L3.8,6.416l-.036.036L2.11,8.1l-.046.046a1.983,1.983,0,0,0-.155.165.442.442,0,0,0,.259.718.465.465,0,0,0,.093.01.49.49,0,0,0,.351-.164l2.01-2.008L5.578,5.9,5.585,5.9l.421.381.868.786a.544.544,0,0,0,.358.169.548.548,0,0,0,.359-.17l.339-.306.339-.306.008-.008L8.9,5.883Z" transform="translate(0 0)"/></g></g></g></svg>