<svg xmlns="http://www.w3.org/2000/svg" width="28.938" height="28.938" viewBox="0 0 28.938 28.938"><defs><style>.a{fill:none;stroke:#3bcff0;stroke-miterlimit:10;stroke-width:2px;}.b{fill:#3bcff0;}</style></defs><g transform="translate(1 1)"><circle class="a" cx="13.469" cy="13.469" r="13.469" transform="translate(0)"/><path class="b" d="M4.562,11.915A8.47,8.47,0,0,0,13.02,2.967,6.078,6.078,0,0,0,14.5,1.41a5.894,5.894,0,0,1-1.709.473A3.008,3.008,0,0,0,14.1.22a5.913,5.913,0,0,1-1.89.73A2.955,2.955,0,0,0,10.042,0a3,3,0,0,0-2.9,3.693A8.419,8.419,0,0,1,1.01.55a3.031,3.031,0,0,0,.921,4.016A2.941,2.941,0,0,1,.583,4.19,3,3,0,0,0,2.97,7.178a2.954,2.954,0,0,1-1.344.051,2.982,2.982,0,0,0,2.78,2.089A5.937,5.937,0,0,1,0,10.563,8.358,8.358,0,0,0,4.562,11.915Z" transform="translate(6.734 8.288)"/></g></svg>